<?xml version="1.0" encoding="utf-8"?>
<!-- Generator: Adobe Illustrator 27.9.0, SVG Export Plug-In . SVG Version: 6.00 Build 0)  -->
<svg version="1.1" id="Layer_1" xmlns="http://www.w3.org/2000/svg" xmlns:xlink="http://www.w3.org/1999/xlink" x="0px" y="0px"
	 viewBox="0 0 31.7 28.36" style="enable-background:new 0 0 31.7 28.36;" xml:space="preserve">
<style type="text/css">
	.st0{fill:#FFFFFF;}
</style>
<g>
	<path class="st0" d="M31.57,9.4c0.03-5.09-4.09-9.26-9.19-9.29l0,0c-4.77-0.03-8.73,3.59-9.23,8.24c4.21,1.5,7.27,5.42,7.51,10.08
		c0.53,0.1,1.07,0.16,1.63,0.16c1.5,0.01,2.98-0.35,4.3-1.04l3.27,0.27c0.24,0.02,0.46-0.06,0.63-0.23
		c0.17-0.16,0.25-0.39,0.24-0.63l-0.24-3.28C31.19,12.37,31.57,10.89,31.57,9.4z M22.53,16.5c-0.59,0-1.07-0.48-1.07-1.07
		c0-0.59,0.48-1.07,1.07-1.07c0.59,0,1.07,0.48,1.07,1.07C23.6,16.02,23.13,16.5,22.53,16.5z M23.6,11.01l0,1.21
		c0,0.59-0.48,1.07-1.07,1.07c-0.59,0-1.07-0.48-1.07-1.07l0-2.14c0-0.59,0.48-1.07,1.07-1.07c1.18,0,2.14-0.96,2.14-2.14
		c0-1.18-0.96-2.14-2.14-2.14c-1.18,0-2.14,0.96-2.14,2.14c0,0.59-0.48,1.07-1.07,1.07c-0.59,0-1.07-0.48-1.07-1.07
		c0-2.36,1.92-4.28,4.28-4.28c2.36,0,4.28,1.92,4.28,4.28C26.82,8.86,25.45,10.54,23.6,11.01z"/>
	<path class="st0" d="M18.52,17.75c-0.39-3.09-2.48-5.89-5.33-7.15c0,0,0,0,0,0c-1.2-0.57-2.54-0.82-3.87-0.84l0,0
		C2.5,9.68-2.09,17.38,1.22,23.34l-0.24,3.28c-0.02,0.23,0.07,0.46,0.24,0.63c0.17,0.17,0.4,0.23,0.63,0.23c0,0,3.27-0.27,3.27-0.27
		h0C11.66,30.64,19.6,25.1,18.52,17.75z M9.6,26.32c-1.84,0-3.53-0.7-4.81-1.84c0-0.1,0-0.21,0-0.33c0.02-0.68,0.43-1.12,0.66-1.3
		c-0.08,0.43,0.64,0.83,0.64,0.83c-0.12-0.25-0.1-0.5,0-0.74c0.37-0.72-0.02-0.89,0.04-1.32l0.14-0.52l-0.74,0.27l-0.37-0.58
		c0,0-0.08,0.08-0.21,0.19c-0.19,0.14-0.5,0.33-0.81,0.25c-0.02,0-0.04-0.02-0.08-0.04c-0.31-0.21-0.45-0.91-0.52-1.3
		c-0.04-0.14-0.04-0.25-0.04-0.25c-0.08-1.22,0.29-2.09,0.81-2.69c0.97,0.99,1.57,1.2,2.85,3.94c1.16,2.52,3.84,3.74,5.29,2.6
		c1.38-1.07,0.31-4.09-1.51-4.11c-2.09-0.02-0.41,1.84-0.41,1.84c-0.52,1.67-2.04,0.25-2.83-1.43c-1.07-2.17-1.59-2.58-2.73-3.47
		c0.93-0.66,1.96-0.81,1.96-0.81c0.37,1.16,0.97,1.88,0.97,1.88l-0.29,0.87l0.89-0.23l0.1,0.14l-0.23,0.74l0.78-0.58
		c2.38-0.37,2.17-2.52,2.17-2.52l0.89-0.14c0,0-0.08-2.04-1.38-3.84C19.51,13.63,18.44,26.03,9.6,26.32z"/>
</g>
</svg>
