<?xml version="1.0" encoding="utf-8"?>
<!-- Generator: Adobe Illustrator 27.9.0, SVG Export Plug-In . SVG Version: 6.00 Build 0)  -->
<svg version="1.1" id="Layer_1" xmlns="http://www.w3.org/2000/svg" xmlns:xlink="http://www.w3.org/1999/xlink" x="0px" y="0px"
	 width="31.7px" height="28.36px" viewBox="0 0 31.7 28.36" enable-background="new 0 0 31.7 28.36" xml:space="preserve">
<g>
	<path fill="#FFFFFF" d="M31.565,9.401c0.03-5.09-4.09-9.26-9.19-9.29c-4.77-0.03-8.73,3.59-9.23,8.24
		c4.21,1.5,7.27,5.42,7.51,10.08c0.53,0.1,1.07,0.16,1.63,0.16c1.5,0.01,2.98-0.35,4.3-1.04l3.27,0.27
		c0.24,0.02,0.46-0.06,0.63-0.23c0.17-0.16,0.25-0.39,0.24-0.63l-0.24-3.28C31.185,12.371,31.565,10.891,31.565,9.401z
		 M22.525,16.501c-0.59,0-1.07-0.48-1.07-1.07c0-0.59,0.48-1.07,1.07-1.07c0.59,0,1.07,0.48,1.07,1.07
		C23.595,16.021,23.125,16.501,22.525,16.501z M23.595,11.011v1.21c0,0.59-0.48,1.07-1.07,1.07c-0.59,0-1.07-0.48-1.07-1.07v-2.14
		c0-0.59,0.48-1.07,1.07-1.07c1.18,0,2.14-0.96,2.14-2.14s-0.96-2.14-2.14-2.14s-2.14,0.96-2.14,2.14c0,0.59-0.48,1.07-1.07,1.07
		c-0.59,0-1.07-0.48-1.07-1.07c0-2.36,1.92-4.28,4.28-4.28s4.28,1.92,4.28,4.28C26.815,8.861,25.445,10.541,23.595,11.011z"/>
	<path fill="#FFFFFF" d="M16.461,23.526c0.038,0.134,0.162,0.188,0.268,0.204c0.249,0.038,0.46-0.021,0.613-0.091
		c0.431-0.722,0.761-1.507,0.976-2.344C17.601,22.383,16.96,23.095,16.461,23.526z"/>
	<path fill="#FFFFFF" d="M15.997,23.887c-0.405,0.278-0.648,0.343-0.672,0.349c-0.571,0.165-1.132,0.059-1.523-0.279
		c-0.175,0.101-0.361,0.199-0.548,0.28c-0.73,0.316-1.383,0.363-1.521,0.369c-0.008,0-0.014,0.001-0.018,0.001
		c-0.008,0-0.017,0.001-0.025,0.001c-0.375,0.018-0.688-0.083-0.931-0.3c-0.238-0.213-0.394-0.531-0.466-0.948
		c-0.035,0.126-0.06,0.215-0.071,0.258c-0.038,0.147-0.153,0.595-0.514,0.674c-0.251,0.055-0.463-0.1-0.596-0.233
		c-0.179-0.157-0.305-0.373-0.39-0.609c-0.245,0.504-0.633,0.987-1.243,1.163c-0.54,0.155-1.065,0.077-1.45-0.207
		c-0.569,0.327-1.085,0.465-1.289,0.511C4.697,24.93,4.657,24.937,4.62,24.94l-0.018,0.001c-0.115,0.004-0.207-0.033-0.254-0.106
		c-0.014-0.022-0.024-0.044-0.031-0.066c-0.001-0.002-0.002-0.004-0.002-0.007c-0.006-0.02-0.01-0.04-0.011-0.058
		c0-0.003-0.001-0.006-0.001-0.009c-0.003-0.042,0.003-0.078,0.008-0.103c0,0,0,0,0,0c0-0.002,0.001-0.004,0.001-0.006
		c0-0.002,0.001-0.005,0.001-0.007c0,0,0-0.001,0-0.001c0.077-0.396,0.184-1.463-0.21-1.875c-0.139-0.146-0.342-0.195-0.62-0.152
		c-0.377,0.059-0.646,0.217-0.824,0.484c-0.395,0.591-0.205,1.522-0.194,1.573c0.002,0.008,0.003,0.017,0.004,0.025
		c0.001,0.006,0.002,0.011,0.003,0.017c0.002,0.016,0.002,0.031,0.002,0.047c0,0.002,0,0.004,0,0.006
		c-0.007,0.11-0.076,0.211-0.185,0.253c-0.027,0.01-0.055,0.015-0.082,0.017c-0.003,0-0.006,0.001-0.01,0.001
		c-0.002,0-0.004,0-0.006,0c-0.011,0-0.022,0-0.032-0.001c-0.007,0-0.013-0.001-0.02-0.003c-0.009-0.002-0.019-0.003-0.028-0.005
		c-0.01-0.003-0.019-0.006-0.029-0.01c-0.008-0.003-0.016-0.006-0.024-0.01c-0.012-0.006-0.024-0.013-0.036-0.02
		c-0.005-0.003-0.009-0.007-0.014-0.011C1.997,24.907,1.989,24.9,1.98,24.891c-0.004-0.004-0.008-0.009-0.013-0.013
		c-0.008-0.009-0.016-0.019-0.023-0.029c-0.003-0.005-0.006-0.009-0.009-0.013c-0.009-0.015-0.018-0.031-0.024-0.048
		c-0.005-0.014-0.213-0.62-0.328-1.612c-0.122,0.079-0.248,0.157-0.373,0.235l-0.235,3.211c-0.02,0.23,0.07,0.46,0.24,0.63
		c0.17,0.17,0.4,0.23,0.63,0.23l3.27-0.27c4.32,2.266,9.236,0.605,11.774-2.894c-0.076,0.001-0.152,0.001-0.234-0.009
		C16.341,24.268,16.133,24.107,15.997,23.887z"/>
	<path fill="#FFFFFF" d="M16.342,22.846c0.49-0.474,1.109-1.211,1.803-2.348c0.166-0.272,0.303-0.531,0.423-0.78
		c0.045-0.639,0.045-1.292-0.054-1.967c-0.022-0.172-0.068-0.339-0.1-0.509c-1.307,1.746-1.937,3.872-2.039,4.9
		C16.348,22.424,16.338,22.656,16.342,22.846z"/>
	<path fill="#FFFFFF" d="M2.618,16.922c0.097-0.191,2.329-4.53,6.121-5.267c0.9-0.175,1.472,0.001,1.702,0.523
		c0.598,1.359-1.946,4.75-2.291,5.184l0.006,0.006l-0.028,0.034c-0.544,0.663-2.251,2.629-4.869,4.601
		c0.044-0.009,0.087-0.02,0.132-0.027c0.59-0.093,0.941,0.126,1.131,0.325C5,22.8,5,23.702,4.945,24.254
		c0.189-0.063,0.43-0.159,0.688-0.297c-0.221-0.4-0.253-0.911-0.077-1.429c0.178-0.526,0.635-0.902,1.164-0.958
		c0.378-0.04,0.711,0.103,0.872,0.373c0.111,0.185,0.232,0.592-0.204,1.229c-0.244,0.356-0.53,0.643-0.823,0.874
		c0.214,0.084,0.474,0.089,0.751,0.009c1.042-0.3,1.229-2.097,1.231-2.115c0.014-0.159,0.154-0.277,0.313-0.265
		c0.159,0.013,0.279,0.152,0.267,0.312c-0.034,0.479,0.038,1.507,0.47,1.702c0.021-0.041,0.047-0.107,0.073-0.21
		c0.038-0.148,0.206-0.733,0.439-1.544c0.359-1.248,0.873-3.038,1.226-4.328c0.19-0.76,0.342-1.343,0.389-1.519
		c0.039-0.148,0.188-0.239,0.337-0.205c0.149,0.034,0.245,0.18,0.216,0.33c-0.046,0.243-0.19,0.797-0.383,1.504
		c-0.394,1.58-0.884,3.656-1.033,4.7c0.008-0.005,0.017-0.009,0.026-0.014c0.682-0.407,1.181-0.357,1.477-0.242
		c0.318,0.124,0.566,0.389,0.663,0.71c0.082,0.274,0.059,0.588-0.057,0.871c0.019-0.008,0.038-0.015,0.057-0.023
		c0.145-0.063,0.29-0.137,0.429-0.216c-0.021-0.039-0.035-0.066-0.035-0.066c-0.157-0.376-0.164-0.828-0.008-1.287
		c0.178-0.526,0.635-0.902,1.164-0.958c0.376-0.04,0.711,0.103,0.873,0.373c0.111,0.186,0.232,0.592-0.204,1.229
		c-0.238,0.348-0.557,0.622-0.906,0.837c0.228,0.119,0.496,0.151,0.807,0.052c0.146-0.046,0.273-0.08,0.65-0.366
		c-0.077-0.456-0.028-0.953-0.001-1.229c0.137-1.386,0.955-3.663,2.253-5.334c0.065-0.083,0.134-0.167,0.204-0.249
		c-0.724-2.577-2.611-4.814-5.07-5.901c-1.2-0.57-2.54-0.82-3.87-0.84C2.676,9.683-1.828,16.974,0.99,22.859
		c0.18-0.113,0.362-0.226,0.536-0.341C1.443,21.067,1.606,19.062,2.618,16.922z M8.887,21.286c-0.16,0.008-0.297-0.116-0.304-0.277
		c-0.008-0.16,0.116-0.297,0.277-0.304c0.16-0.008,0.297,0.116,0.304,0.277C9.171,21.142,9.047,21.278,8.887,21.286z"/>
	<path fill="#FFFFFF" d="M7.679,17.033c0.018-0.022,0.031-0.038,0.042-0.05c0.689-0.844,2.639-3.818,2.166-4.61
		c-0.101-0.17-0.352-0.211-0.622-0.199c-0.139,0.007-0.283,0.028-0.415,0.053c-3.516,0.683-5.688,4.909-5.71,4.951
		c-0.878,1.857-1.078,3.615-1.046,4.952C5.122,20.013,7.092,17.748,7.679,17.033z"/>
	<path fill="#FFFFFF" d="M14.766,22.462c0.214-0.313,0.236-0.516,0.185-0.601c-0.039-0.066-0.145-0.102-0.274-0.096
		c-0.012,0.001-0.025,0.001-0.037,0.003c-0.231,0.025-0.546,0.188-0.675,0.566c-0.106,0.314-0.11,0.609-0.017,0.85
		c0.056-0.032,0.11-0.068,0.164-0.104c0.128-0.091,0.23-0.169,0.294-0.219C14.542,22.743,14.664,22.611,14.766,22.462z"/>
	<path fill="#FFFFFF" d="M12.159,22.687c-0.256-0.099-0.598-0.029-0.99,0.205c-0.148,0.082-0.299,0.172-0.341,0.203
		c0.037,0.374,0.14,0.639,0.308,0.79c0.133,0.119,0.315,0.169,0.545,0.155c0.37-0.023,0.572-0.206,0.676-0.356
		c0.136-0.196,0.186-0.452,0.126-0.652C12.438,22.877,12.316,22.748,12.159,22.687z"/>
	<path fill="#FFFFFF" d="M7.093,22.241c-0.039-0.066-0.145-0.102-0.274-0.096c-0.012,0.001-0.025,0.002-0.037,0.003
		c-0.231,0.025-0.546,0.188-0.675,0.566c-0.119,0.351-0.11,0.677,0.019,0.931c0.28-0.207,0.555-0.471,0.782-0.803
		C7.122,22.529,7.144,22.327,7.093,22.241z"/>
</g>
</svg>
