<?xml version="1.0" encoding="utf-8"?>
<!-- Generator: Adobe Illustrator 21.1.0, SVG Export Plug-In . SVG Version: 6.00 Build 0)  -->
<svg version="1.1" id="Layer_1" xmlns="http://www.w3.org/2000/svg" xmlns:xlink="http://www.w3.org/1999/xlink" x="0px" y="0px"
	 width="243px" height="70px" viewBox="0 0 243 70" style="enable-background:new 0 0 243 70;" xml:space="preserve">
<style type="text/css">
	.st0{fill:#ED1164;}
</style>
<g>
	<g>
		<g>
			<g>
				<path class="st0" d="M38,19.3c0,0,1,10.4-10.5,12.2l-3.8,2.8l1.1-3.6L24.3,30L20,31.1l1.4-4.2c0,0-2.9-3.5-4.7-9.1
					c0,0-5,0.7-9.5,3.9c5.5,4.3,8,6.3,13.2,16.8c3.8,8.1,11.2,15,13.7,6.9c0,0-8.1-9,2-8.9c8.8,0.1,14,14.7,7.3,19.9
					c-7,5.5-20-0.4-25.6-12.6C11.6,30.5,8.7,29.5,4,24.7c-2.5,2.9-4.3,7.1-3.9,13h0l0,0c0,0,0,0.5,0.2,1.2c0.3,1.9,1,5.3,2.5,6.3
					c0.2,0.1,0.3,0.2,0.4,0.2c1.5,0.4,3-0.5,3.9-1.2c0.6-0.5,1-0.9,1-0.9l1.8,2.8l3.6-1.3l-0.7,2.5c-0.3,2.1,1.6,2.9-0.2,6.4
					c-0.5,1.2-0.6,2.4,0,3.6c0,0-3.5-1.9-3.1-4c-1.1,0.9-3.1,3-3.2,6.3c0,0.6,0,1.1,0,1.6c6.2,5.5,14.4,8.9,23.3,8.9
					C49,70,64.7,54.2,64.7,34.7C64.7,17.3,52.1,2.9,35.6,0c6.3,8.7,6.7,18.6,6.7,18.6L38,19.3z"/>
			</g>
		</g>
	</g>
	<g>
		<ellipse class="st0" cx="238.5" cy="47.4" rx="4.5" ry="4.5"/>
		<g>
			<path d="M105.2,32.5l-4-1.6c-3-1.1-4.8-1.7-4.8-3.3c0-1.4,1.3-2.2,3.4-2.2c2.4,0,4.3,0.8,6.5,2.4l4.3-5.4c-3-3-7.1-4.4-10.8-4.4
				c-7.1,0-12.1,4.6-12.1,10.2c0,4.7,3.1,7.7,6.6,9.1l4.1,1.7c2.8,1.1,4.4,1.6,4.4,3.2c0,1.4-1.1,2.3-3.7,2.3
				c-2.4,0-5.3-1.3-7.6-3.2l-4.9,5.9c3.5,3.2,8.2,4.7,12.4,4.7c8.1,0,12.8-4.9,12.8-10.5C111.6,36.9,109.3,34.1,105.2,32.5z"/>
			<polygon points="113.4,25.9 122.1,25.9 122.1,51.3 130.7,51.3 130.7,25.9 139.3,25.9 139.3,18.6 113.4,18.6 			"/>
			<polygon points="152.8,38.2 163.5,38.2 163.5,31 152.8,31 152.8,25.9 165.2,25.9 165.2,18.6 144.2,18.6 144.2,51.3 165.7,51.3 
				165.7,44.1 152.8,44.1 			"/>
			<path d="M197.5,29.2c0-8.1-6-10.6-13.1-10.6h-12.4v32.7h8.6v-11h3.3l5.6,11h9.6l-7.1-12.7C195.4,36.9,197.5,33.9,197.5,29.2z
				 M180.7,25.5h3.1c3.4,0,5.2,0.9,5.2,3.7c0,2.8-1.8,4.3-5.2,4.3h-3.1V25.5z"/>
			<path d="M224.1,41.7c-1.4,1.5-3.4,2.8-5.9,2.8c-4.2,0-7-3.4-7-9.6c0-5.9,3.3-9.5,7.1-9.5c2.2,0,3.8,1,5.4,2.4l4.5-5.5
				c-2.3-2.3-5.8-4.3-10.1-4.3c-8.2,0-15.8,6.2-15.8,17.2c0,11.2,7.2,16.7,15.6,16.7c4.2,0,8-1.6,10.7-4.8L224.1,41.7z"/>
		</g>
	</g>
</g>
</svg>
