<?xml version="1.0" encoding="UTF-8" standalone="no"?>
<svg
   xmlns:dc="http://purl.org/dc/elements/1.1/"
   xmlns:cc="http://creativecommons.org/ns#"
   xmlns:rdf="http://www.w3.org/1999/02/22-rdf-syntax-ns#"
   xmlns:svg="http://www.w3.org/2000/svg"
   xmlns="http://www.w3.org/2000/svg"
   xmlns:xlink="http://www.w3.org/1999/xlink"
   xmlns:sodipodi="http://sodipodi.sourceforge.net/DTD/sodipodi-0.dtd"
   xmlns:inkscape="http://www.inkscape.org/namespaces/inkscape"
   id="Layer_10"
   data-name="Layer 10"
   viewBox="0 0 100 100"
   version="1.1"
   sodipodi:docname="heibel-logos-rond-wit.svg"
   width="100"
   height="100"
   inkscape:version="0.92.3 (2405546, 2018-03-11)">
  <metadata
     id="metadata77">
    <rdf:RDF>
      <cc:Work
         rdf:about="">
        <dc:format>image/svg+xml</dc:format>
        <dc:type
           rdf:resource="http://purl.org/dc/dcmitype/StillImage" />
        <dc:title>heibel-logos</dc:title>
      </cc:Work>
    </rdf:RDF>
  </metadata>
  <sodipodi:namedview
     pagecolor="#ffffff"
     bordercolor="#666666"
     borderopacity="1"
     objecttolerance="10"
     gridtolerance="10"
     guidetolerance="10"
     inkscape:pageopacity="0"
     inkscape:pageshadow="2"
     inkscape:window-width="1920"
     inkscape:window-height="1001"
     id="namedview75"
     showgrid="false"
     fit-margin-top="0"
     fit-margin-left="0"
     fit-margin-right="0"
     fit-margin-bottom="0"
     inkscape:zoom="1.665138"
     inkscape:cx="-2.3922033"
     inkscape:cy="70.875002"
     inkscape:window-x="-9"
     inkscape:window-y="-9"
     inkscape:window-maximized="1"
     inkscape:current-layer="Layer_10" />
  <defs
     id="defs32">
    <style
       id="style2">.cls-1{fill:#fff;}.cls-10,.cls-11,.cls-12,.cls-13,.cls-2,.cls-3,.cls-4,.cls-5,.cls-6,.cls-7,.cls-8,.cls-9{opacity:0.2;}.cls-2{fill:url(#linear-gradient);}.cls-3{fill:url(#linear-gradient-2);}.cls-4{fill:url(#linear-gradient-3);}.cls-5{fill:url(#linear-gradient-4);}.cls-6{fill:url(#linear-gradient-5);}.cls-7{fill:url(#linear-gradient-6);}.cls-8{fill:url(#linear-gradient-7);}.cls-9{fill:url(#linear-gradient-8);}.cls-10{fill:url(#linear-gradient-9);}.cls-11{fill:url(#linear-gradient-10);}.cls-12{fill:url(#linear-gradient-11);}.cls-13{fill:url(#linear-gradient-12);}.cls-14{fill:url(#linear-gradient-13);}.cls-15{fill:url(#linear-gradient-14);}.cls-16{fill:url(#linear-gradient-15);}.cls-17{fill:url(#linear-gradient-16);}.cls-18{fill:url(#linear-gradient-17);}.cls-19{fill:url(#linear-gradient-18);}</style>
    <linearGradient
       id="linear-gradient"
       x1="40.09"
       y1="100.59"
       x2="42.450001"
       y2="100.2"
       gradientUnits="userSpaceOnUse">
      <stop
         offset="0"
         id="stop4" />
      <stop
         offset="1"
         stop-opacity="0"
         id="stop6" />
    </linearGradient>
    <linearGradient
       id="linear-gradient-2"
       x1="46.490002"
       y1="96.919998"
       x2="45.919998"
       y2="95.239998"
       xlink:href="#linear-gradient"
       gradientTransform="matrix(0.70551714,0,0,0.70551714,0.00705517,4.9773023e-7)" />
    <linearGradient
       id="linear-gradient-3"
       x1="48.48"
       y1="98.290001"
       x2="50.049999"
       y2="99.870003"
       xlink:href="#linear-gradient"
       gradientTransform="matrix(0.70551714,0,0,0.70551714,0.00705517,4.9773023e-7)" />
    <linearGradient
       id="linear-gradient-4"
       x1="89.5"
       y1="96.410004"
       x2="88.919998"
       y2="94.709999"
       xlink:href="#linear-gradient"
       gradientTransform="matrix(0.70551714,0,0,0.70551714,0.00705517,4.9773023e-7)" />
    <linearGradient
       id="linear-gradient-5"
       x1="91.129997"
       y1="98.120003"
       x2="92.620003"
       y2="99.610001"
       xlink:href="#linear-gradient"
       gradientTransform="matrix(0.70551714,0,0,0.70551714,0.00705517,4.9773023e-7)" />
    <linearGradient
       id="linear-gradient-6"
       x1="25.16"
       y1="87.559998"
       x2="24.16"
       y2="85.519997"
       xlink:href="#linear-gradient"
       gradientTransform="matrix(0.70551714,0,0,0.70551714,0.00705517,4.9773023e-7)" />
    <linearGradient
       id="linear-gradient-7"
       x1="25.360001"
       y1="89.529999"
       x2="26.360001"
       y2="90.360001"
       xlink:href="#linear-gradient"
       gradientTransform="matrix(0.70551714,0,0,0.70551714,0.00705517,4.9773023e-7)" />
    <linearGradient
       id="linear-gradient-8"
       x1="103.57"
       y1="96.120003"
       x2="105.1"
       y2="95.18"
       xlink:href="#linear-gradient"
       gradientTransform="matrix(0.70551714,0,0,0.70551714,0.00705517,4.9773023e-7)" />
    <linearGradient
       id="linear-gradient-9"
       x1="101.37"
       y1="98.269997"
       x2="99.529999"
       y2="99.010002"
       xlink:href="#linear-gradient"
       gradientTransform="matrix(0.70551714,0,0,0.70551714,0.00705517,4.9773023e-7)" />
    <linearGradient
       id="linear-gradient-10"
       x1="81.93"
       y1="99.199997"
       x2="83.510002"
       y2="100.68"
       xlink:href="#linear-gradient"
       gradientTransform="matrix(0.70551714,0,0,0.70551714,0.00705517,4.9773023e-7)" />
    <linearGradient
       id="linear-gradient-11"
       x1="73.199997"
       y1="83.93"
       x2="70.580002"
       y2="90.18"
       xlink:href="#linear-gradient"
       gradientTransform="matrix(0.70551714,0,0,0.70551714,0.00705517,4.9773023e-7)" />
    <linearGradient
       id="linear-gradient-12"
       x1="62.970001"
       y1="92.339996"
       x2="63.580002"
       y2="92.690002"
       xlink:href="#linear-gradient"
       gradientTransform="matrix(0.70551714,0,0,0.70551714,0.00705517,4.9773023e-7)" />
    <linearGradient
       id="linear-gradient-13"
       x1="-34.849998"
       y1="20.76"
       x2="24"
       y2="69.959999"
       gradientUnits="userSpaceOnUse">
      <stop
         offset="0"
         stop-color="#e4423f"
         id="stop20" />
      <stop
         offset="0.49"
         stop-color="#e54778"
         id="stop22" />
      <stop
         offset="1"
         stop-color="#50348f"
         id="stop24" />
    </linearGradient>
    <linearGradient
       id="linear-gradient-14"
       x1="-25.1"
       y1="9.1000004"
       x2="33.75"
       y2="58.299999"
       xlink:href="#linear-gradient-13"
       gradientTransform="matrix(0.70551714,0,0,0.70551714,0.00705517,4.9773023e-7)" />
    <linearGradient
       id="linear-gradient-15"
       x1="-20.219999"
       y1="3.25"
       x2="38.630001"
       y2="52.459999"
       xlink:href="#linear-gradient-13"
       gradientTransform="matrix(0.70551714,0,0,0.70551714,0.00705517,4.9773023e-7)" />
    <linearGradient
       id="linear-gradient-16"
       x1="-17.040001"
       y1="-0.55000001"
       x2="41.810001"
       y2="48.66"
       xlink:href="#linear-gradient-13"
       gradientTransform="matrix(0.70551714,0,0,0.70551714,0.00705517,4.9773023e-7)" />
    <linearGradient
       id="linear-gradient-17"
       x1="-16.02"
       y1="-1.77"
       x2="42.84"
       y2="47.43"
       xlink:href="#linear-gradient-13"
       gradientTransform="matrix(0.70551714,0,0,0.70551714,0.00705517,4.9773023e-7)" />
    <linearGradient
       id="linear-gradient-18"
       x1="-2.3"
       y1="-18.18"
       x2="56.560001"
       y2="31.02"
       xlink:href="#linear-gradient-13"
       gradientTransform="matrix(0.70551714,0,0,0.70551714,0.00705517,4.9773023e-7)" />
    <linearGradient
       inkscape:collect="always"
       xlink:href="#linear-gradient-13"
       id="linearGradient884"
       gradientUnits="userSpaceOnUse"
       x1="-34.849998"
       y1="20.76"
       x2="24"
       y2="69.959999"
       gradientTransform="matrix(0.70551714,0,0,0.70551714,0.00705517,4.9773023e-7)" />
    <linearGradient
       inkscape:collect="always"
       xlink:href="#linear-gradient"
       id="linearGradient886"
       gradientUnits="userSpaceOnUse"
       x1="40.09"
       y1="100.59"
       x2="42.450001"
       y2="100.2"
       gradientTransform="matrix(0.70551714,0,0,0.70551714,0.00705517,4.9773023e-7)" />
  </defs>
  <title
     id="title34">heibel-logos</title>
  <circle
     class="cls-1"
     cx="50.007057"
     cy="50.000008"
     r="42.211094"
     id="circle36"
     style="fill:#ffffff;stroke-width:0.70551717" />
  <path
     class="cls-2"
     d="m 29.010865,69.79681 a 16.078736,16.078736 0 0 0 1.552138,-0.52208 l 0.486807,2.22943 a 18.794977,18.794977 0 0 1 -2.758573,0.78313 c 0,0 0.578525,-0.16933 0.719628,-2.49048 z"
     id="path38"
     style="opacity:0.2;fill:url(#linearGradient886);stroke-width:0.70551717"
     inkscape:connector-curvature="0" />
  <path
     class="cls-3"
     d="m 33.356851,66.23395 -2.208269,0.51503 a 5.8557923,5.8557923 0 0 0 0.606745,2.03189 9.4115987,9.4115987 0 0 0 1.954282,-1.11472 3.6969098,3.6969098 0 0 1 -0.352758,-1.4322 z"
     id="path40"
     style="opacity:0.2;fill:url(#linear-gradient-2);stroke-width:0.70551717"
     inkscape:connector-curvature="0" />
  <path
     class="cls-4"
     d="m 35.282912,69.28884 a 13.242557,13.242557 0 0 1 -2.116551,1.31226 v 0 a 5.6441372,5.6441372 0 0 0 1.989558,1.023 l 1.657966,-1.99661 a 3.8380133,3.8380133 0 0 1 -1.530973,-0.33865 z"
     id="path42"
     style="opacity:0.2;fill:url(#linear-gradient-3);stroke-width:0.70551717"
     inkscape:connector-curvature="0" />
  <path
     class="cls-5"
     d="M 63.750529,65.83886 61.506985,66.368 a 6.2226612,6.2226612 0 0 0 0.352758,1.82023 l 0.126993,0.26104 c 0,0 0.987724,-0.50091 1.947228,-1.12882 a 4.0778891,4.0778891 0 0 1 -0.183435,-1.48159 z"
     id="path44"
     style="opacity:0.2;fill:url(#linear-gradient-4);stroke-width:0.70551717"
     inkscape:connector-curvature="0" />
  <path
     class="cls-6"
     d="m 65.373219,69.09835 a 19.839142,19.839142 0 0 1 -2.116552,1.17116 5.6441372,5.6441372 0 0 0 1.85551,1.1641 l 1.672076,-1.85551 a 3.6263581,3.6263581 0 0 1 -1.411034,-0.47975 z"
     id="path46"
     style="opacity:0.2;fill:url(#linear-gradient-5);stroke-width:0.70551717"
     inkscape:connector-curvature="0" />
  <path
     class="cls-7"
     d="m 18.484549,59.26344 -2.292931,0.55736 c -0.04939,0.93128 -0.0635,1.82729 -0.05644,2.66685 l 2.26471,-1.41103 c 0.01411,-0.58558 0.04233,-1.19938 0.08466,-1.81318 z"
     id="path48"
     style="opacity:0.2;fill:url(#linear-gradient-6);stroke-width:0.70551717"
     inkscape:connector-curvature="0" />
  <path
     class="cls-8"
     d="m 16.233949,65.02751 c 0.09877,1.41104 0.253987,2.65275 0.416256,3.63342 l 6.264992,-7.85946 z"
     id="path50"
     style="opacity:0.2;fill:url(#linear-gradient-7);stroke-width:0.70551717"
     inkscape:connector-curvature="0" />
  <path
     class="cls-9"
     d="m 73.23268,66.45266 a 8.5790885,8.5790885 0 0 0 0.338648,2.63863 c 0.522082,-0.39509 1.072386,-0.86778 1.657965,-1.41103 L 74.2839,65.4861 c -0.366869,0.35276 -0.719627,0.6773 -1.05122,0.96656 z"
     id="path52"
     style="opacity:0.2;fill:url(#linear-gradient-8);stroke-width:0.70551717"
     inkscape:connector-curvature="0" />
  <path
     class="cls-10"
     d="m 69.147735,69.26062 0.705517,2.11655 a 12.177226,12.177226 0 0 0 1.883731,-0.97361 7.2950473,7.2950473 0 0 1 -0.705517,-2.24355 10.229999,10.229999 0 0 1 -1.883731,1.10061 z"
     id="path54"
     style="opacity:0.2;fill:url(#linear-gradient-9);stroke-width:0.70551717"
     inkscape:connector-curvature="0" />
  <path
     class="cls-11"
     d="m 61.422323,68.71737 c -0.373925,0.17638 -0.754904,0.33865 -1.128828,0.48681 l -0.225765,0.0776 c 0,0 -0.959504,2.173 -4.656414,3.10428 a 17.701425,17.701425 0 0 0 5.644138,-1.13588 c 0.105827,0 0.211655,-0.0847 0.310427,-0.127 0.02117,-0.92422 0.05644,-1.88373 0.05644,-2.40581 z"
     id="path56"
     style="opacity:0.2;fill:url(#linear-gradient-10);stroke-width:0.70551717"
     inkscape:connector-curvature="0" />
  <path
     class="cls-12"
     d="m 51.284041,56.173275 c 0,-0.105828 0.04939,-0.197545 0.07761,-0.289262 -0.705517,2.116551 -1.411034,4.155497 -2.003669,5.905177 -1.044165,3.09017 -1.799068,5.31255 -1.975448,5.87696 a 4.2331029,4.2331029 0 0 1 -0.317482,0.76901 v 0 l 0.557358,2.29293 c 1.2276,-0.38098 1.714407,-1.90489 1.876676,-2.43403 0.04939,-0.16932 0.162269,-0.50797 0.324538,-0.98772 a 39.946381,39.946381 0 0 1 1.46042,-11.133065 z"
     id="path58"
     style="opacity:0.2;fill:url(#linear-gradient-11);stroke-width:0.70551717"
     inkscape:connector-curvature="0" />
  <path
     class="cls-13"
     d="m 45.562297,61.81036 a 26.95781,26.95781 0 0 1 -1.813179,5.58064 6.4131508,6.4131508 0 0 0 0.888952,1.83434 l 1.2276,-2.68802 a 13.814026,13.814026 0 0 1 -0.303373,-4.72696 z"
     id="path60"
     style="opacity:0.2;fill:url(#linear-gradient-12);stroke-width:0.70551717"
     inkscape:connector-curvature="0" />
  <path
     class="cls-14"
     d="m 36.842105,64.71003 c 0.881897,-1.1641 1.001835,-1.94723 0.8184,-2.28587 a 1.1429378,1.1429378 0 0 0 -1.03711,-0.41626 h -0.141103 a 3.1748271,3.1748271 0 0 0 -2.709186,2.06011 4.6352476,4.6352476 0 0 0 -0.09877,3.59814 12.94624,12.94624 0 0 0 3.167772,-2.95612 z"
     id="path62"
     style="fill:url(#linearGradient884);stroke-width:0.70551717"
     inkscape:connector-curvature="0" />
  <path
     class="cls-15"
     d="m 57.153944,65.0769 c -0.966559,-0.43036 -2.299986,-0.21871 -3.852124,0.60675 -0.585579,0.28926 -1.185269,0.60674 -1.354593,0.70551 0.07761,1.45337 0.423311,2.49753 1.044166,3.10428 a 2.758572,2.758572 0 0 0 2.07422,0.70552 3.2665444,3.2665444 0 0 0 2.67391,-1.24877 3.0548892,3.0548892 0 0 0 0.606745,-2.49048 2.1165514,2.1165514 0 0 0 -1.192324,-1.38281 z"
     id="path64"
     style="fill:url(#linear-gradient-14);stroke-width:0.70551717"
     inkscape:connector-curvature="0" />
  <path
     class="cls-16"
     d="m 40.877663,42.436856 0.169324,-0.183434 c 2.822069,-3.132497 10.88613,-14.251447 9.171723,-17.390998 -0.359813,-0.705517 -1.312262,-0.881896 -2.356427,-0.881896 a 11.006067,11.006067 0 0 0 -1.615634,0.134048 C 32.587837,26.104134 23.430224,42.006491 23.345562,42.168759 A 42.19698,42.19698 0 0 0 18.406942,61.08367 112.33949,112.33949 0 0 0 40.877663,42.436856 Z"
     id="path66"
     style="fill:url(#linear-gradient-15);stroke-width:0.70551717"
     inkscape:connector-curvature="0" />
  <path
     class="cls-17"
     d="m 67.221673,64.68181 c 0.881897,-1.1641 1.00889,-1.94723 0.825456,-2.28587 a 1.1499929,1.1499929 0 0 0 -1.015945,-0.41626 h -0.148159 a 3.1748271,3.1748271 0 0 0 -2.70213,2.06011 4.7975166,4.7975166 0 0 0 -0.225766,3.28066 c 0.225766,-0.11289 0.437421,-0.24694 0.656131,-0.37393 0.507972,-0.32454 0.917172,-0.60674 1.171159,-0.79018 a 8.0287851,8.0287851 0 0 0 1.439254,-1.47453 z"
     id="path68"
     style="fill:url(#linear-gradient-16);stroke-width:0.70551717"
     inkscape:connector-curvature="0" />
  <path
     class="cls-18"
     d="M 50.007055,4.9773023e-7 A 50,50 0 1 0 100,50 50,50 0 0 0 50.007055,4.9773023e-7 Z M 82.460844,58.98829 c -3.527586,5.22083 -6.603641,8.29688 -8.910682,10.11006 a 1.192324,1.192324 0 0 0 0.994779,0.83956 4.3107098,4.3107098 0 0 0 3.435869,-0.79723 1.1288274,1.1288274 0 0 1 1.411034,1.73557 6.9352335,6.9352335 0 0 1 -4.12022,1.41104 6.2438267,6.2438267 0 0 1 -1.121772,-0.0988 3.3300409,3.3300409 0 0 1 -2.462255,-1.74262 9.2775504,9.2775504 0 0 1 -2.6598,1.2276 6.2226612,6.2226612 0 0 1 -5.827571,-1.36165 19.34528,19.34528 0 0 1 -2.137717,0.94539 17.849584,17.849584 0 0 1 -5.933399,1.14999 H 54.959786 A 4.8469028,4.8469028 0 0 1 51.4322,71.08083 6.1662198,6.1662198 0 0 1 49.80951,67.33454 c -0.162269,0.47975 -0.275151,0.8184 -0.324538,0.98772 -0.169324,0.55736 -0.705517,2.26471 -2.116551,2.50459 a 2.5610272,2.5610272 0 0 1 -2.2506,-0.98067 5.6864682,5.6864682 0 0 1 -1.411034,-2.41993 c -1.03711,1.89784 -2.624524,3.68986 -5.009172,4.23311 a 6.3496543,6.3496543 0 0 1 -5.559475,-1.05828 18.49866,18.49866 0 0 1 -5.065613,1.73557 2.7515169,2.7515169 0 0 1 -0.458586,0.0635 h -0.07055 a 1.0582757,1.0582757 0 0 1 -0.959503,-0.45859 1.0018343,1.0018343 0 0 1 -0.112883,-0.25398 c 0,0 0,0 0,0 a 0.86073092,0.86073092 0 0 1 0,-0.22577 v 0 a 1.7567377,1.7567377 0 0 1 0.04939,-0.39509 v 0 -0.0494 0 c 0.373925,-1.50981 0.980669,-5.64414 -0.465641,-7.27389 a 2.5751376,2.5751376 0 0 0 -2.363482,-0.70551 4.402427,4.402427 0 0 0 -3.2736,1.7144 c -1.629744,2.20827 -1.065331,5.83463 -1.03711,6.03217 a 0.22576549,0.22576549 0 0 1 0,0.0988 0.1975448,0.1975448 0 0 1 0,0.0635 0.79723437,0.79723437 0 0 1 0,0.18344 v 0 a 1.1147171,1.1147171 0 0 1 -0.761959,0.93834 1.2558205,1.2558205 0 0 1 -0.317482,0.0564 h -0.0635 -0.119938 -0.07761 -0.105827 l -0.112883,-0.0423 -0.09172,-0.0423 -0.134048,-0.0847 -0.04939,-0.0423 -0.09877,-0.0917 -0.04939,-0.0564 a 0.6420206,0.6420206 0 0 1 -0.07761,-0.11288 0.246931,0.246931 0 0 1 -0.03528,-0.0564 0.78312403,0.78312403 0 0 1 -0.08466,-0.19049 31.226189,31.226189 0 0 1 -0.966559,-6.38493 c -0.769013,0.45153 -1.552137,0.89601 -2.349372,1.32637 a 1.1224709,1.1224709 0 1 1 -1.079441,-1.96839 c 1.135883,-0.62086 2.2506,-1.26288 3.330041,-1.9049 a 44.511077,44.511077 0 0 1 5.234937,-21.384222 c 0.4092,-0.705517 9.813744,-17.052349 24.580218,-19.204176 3.527585,-0.507973 5.644137,0.275151 6.469592,2.335261 2.06011,5.354875 -8.374489,17.969522 -9.785523,19.578101 v 0 l -0.112883,0.126993 A 113.9128,113.9128 0 0 1 22.915197,60.80147 l 0.515027,-0.0776 a 4.7128545,4.7128545 0 0 1 4.31071,1.46042 c 1.742627,2.01778 1.580359,5.49598 1.269931,7.61253 a 17.595598,17.595598 0 0 0 2.744462,-1.023 6.8152956,6.8152956 0 0 1 -0.04233,-5.5242 5.4254268,5.4254268 0 0 1 4.670523,-3.48525 3.3864823,3.3864823 0 0 1 3.259489,1.61563 c 0.39509,0.70552 0.79018,2.32115 -1.008889,4.69875 a 15.408494,15.408494 0 0 1 -3.351207,3.2101 4.5082546,4.5082546 0 0 0 2.892621,0.16932 c 4.077889,-0.96656 5.129109,-7.86651 5.136164,-7.93001 a 1.1288274,1.1288274 0 0 1 1.262876,-0.96656 1.1217723,1.1217723 0 0 1 0.966559,1.24877 c -0.218711,1.8414 -0.126993,5.82757 1.509806,6.65302 a 4.2331029,4.2331029 0 0 0 0.317483,-0.79723 c 0.176379,-0.55736 0.931283,-2.82207 1.975448,-5.87696 1.615634,-4.748129 3.929731,-11.563425 5.524199,-16.473824 0.874842,-2.899676 1.580359,-5.100889 1.792014,-5.806406 a 1.0970962,1.0970962 0 0 1 2.116551,0.578524 c -0.211655,0.952448 -0.881896,3.061944 -1.756737,5.77113 -1.813179,6.011006 -4.099055,13.926906 -4.846903,17.927186 l 0.09877,-0.0494 c 2.709186,-1.45337 4.621137,-1.1641 5.74291,-0.66319 a 4.2965994,4.2965994 0 0 1 2.426979,2.82207 5.14322,5.14322 0 0 1 -0.373924,3.35121 l 0.225765,-0.0776 c 0.564414,-0.21871 1.135883,-0.47975 1.693241,-0.7549 l -0.126993,-0.26104 a 7.0551714,7.0551714 0 0 1 0.2046,-4.93862 5.4254268,5.4254268 0 0 1 4.670524,-3.48526 3.3935375,3.3935375 0 0 1 3.294765,1.60153 c 0.395089,0.70551 0.783124,2.3282 -1.015945,4.69874 a 11.288274,11.288274 0 0 1 -3.640468,3.06194 3.9226753,3.9226753 0 0 0 3.104275,0.35276 6.7729646,6.7729646 0 0 0 2.568082,-1.29109 18.667984,18.667984 0 0 1 0.225766,-4.74813 c 0.783124,-5.319604 4.353041,-13.955134 9.665585,-20.163684 1.502751,-1.756738 3.457034,-3.675745 5.234937,-2.927897 1.777903,0.747849 1.66502,3.372372 1.587414,4.275434 0.01411,0.797235 -0.0635,6.716524 -5.277269,14.399607 z M 45.86567,57.944123 a 1.1217723,1.1217723 0 1 1 -1.121773,-1.121772 1.1217723,1.1217723 0 0 1 1.121773,1.121772 z"
     id="path70"
     style="fill:url(#linear-gradient-17);stroke-width:0.70551717"
     inkscape:connector-curvature="0" />
  <path
     class="cls-19"
     d="m 84.231692,43.085932 a 14.110343,14.110343 0 0 0 -1.580359,1.622689 C 77.007196,51.284041 74.09341,59.69381 73.479611,63.75758 a 24.403838,24.403838 0 0 0 -0.261042,2.70919 45.392973,45.392973 0 0 0 7.386765,-8.727247 c 5.037392,-7.414985 4.903344,-13.066178 4.903344,-13.122619 0,-0.05644 0,-0.331593 0,-0.380979 a 5.0232821,5.0232821 0 0 0 0,-0.564414 0.7901792,0.7901792 0 0 0 -1.276986,-0.585579 z"
     id="path72"
     style="fill:url(#linear-gradient-18);stroke-width:0.70551717"
     inkscape:connector-curvature="0" />
</svg>
